<?xml version="1.0" standalone="yes"?>
<svg xmlns="http://www.w3.org/2000/svg" width="500" height="500">
<path style="fill:#f8f9ff; stroke:none;" d="M0 0L0 500L500 500L500 0L0 0z"/>
<path style="fill:#c72325; stroke:none;" d="M159 179L160 180L159 179z"/>
<path style="fill:#d56c85; stroke:none;" d="M160 179L160 180L197 180C187.202 175.889 170.649 179 160 179z"/>
<path style="fill:#c72325; stroke:none;" d="M197.667 179.333L198.333 179.667L197.667 179.333z"/>
<path style="fill:#d56c85; stroke:none;" d="M154 181L154 182L159 181L154 181z"/>
<path style="fill:#6a6b96; stroke:none;" d="M132 238L143 238L141 247L132 246L132 249L141 250C138.813 256.639 137.343 256.321 131 258C135.176 281.527 132 308.108 132 332C155.468 334.466 167.998 308.986 168 289C184.953 289 202.555 290.609 218 282.096C225.15 278.156 229.695 271.822 236 267L236 266C215.151 269.857 202.932 242.985 223 232.442C229.519 229.017 236.262 230.106 243 232C242.996 193.578 212.653 180 179 180C164.833 180 153.01 179.574 142.093 190.174C128.925 202.96 132 221.33 132 238z"/>
<path style="fill:#d56c85; stroke:none;" d="M200 180L200 181L203 181L200 180z"/>
<path style="fill:#c72325; stroke:none;" d="M203 180L204 181L203 180M284 180L285 181L284 180z"/>
<path style="fill:#d56c85; stroke:none;" d="M285 180L285 181L353 181L353 189L354 189L354 180L285 180z"/>
<path style="fill:#c72325; stroke:none;" d="M153 181L154 182L153 181z"/>
<path style="fill:#d56c85; stroke:none;" d="M204 181L204 182L207 182L204 181z"/>
<path style="fill:#c72325; stroke:none;" d="M207 181L208 182L207 181M280 181L281 182L280 181z"/>
<path style="fill:#d56c85; stroke:none;" d="M281 181L281 182L284 182L281 181z"/>
<path style="fill:#6a6b96; stroke:none;" d="M260 238L270 238L269 247L259 246L259 247L267 248L266 256L259 256L259 257L270 258L269 266L260 266C260 284.073 255.835 307.048 268.379 321.96C282.543 338.799 312.558 333 332 333C341.825 333 349.994 332.878 357.91 326.181C367.407 318.145 366.959 309.158 368.424 298C369.28 291.487 372.069 272.97 367.821 267.603C364.149 262.964 354.733 267.02 350.044 265.958C346.408 265.134 345.042 260.832 342 259L342 266L331 266L332 246L316 246L316 248L326 248L325 256L317 256L317 258L328 258L328 266L323 266C326.052 271.001 331.274 273.414 337 274L338 301C328.662 301 304.856 305.249 297.928 298.427C290.8 291.409 294 275.163 294 266C287.205 265.475 285.367 259.686 283 254L282 254L282 266L273 266L273 238L285 238L290 250L291 250L291 238L294 238C294 232.782 292.845 225.936 294.742 221.001C299.075 209.732 315.532 213 325 213L325 217C347.872 216.808 353.159 200.216 353 181L299 181C285.444 181 272.111 181.742 264.532 195C257.431 207.422 260 224.289 260 238z"/>
<path style="fill:#c72325; stroke:none;" d="M151 182L152 183L151 182z"/>
<path style="fill:#d56c85; stroke:none;" d="M152 182L153 183L152 182M208 182L208 183L211 183L208 182z"/>
<path style="fill:#c72325; stroke:none;" d="M277 182L278 183L277 182z"/>
<path style="fill:#d56c85; stroke:none;" d="M278.667 182.333L279.333 182.667L278.667 182.333z"/>
<path style="fill:#c72325; stroke:none;" d="M149 183L150 184L149 183z"/>
<path style="fill:#d56c85; stroke:none;" d="M150 183L151 184L150 183M211 183L211 184L215 185L215 184L211 183z"/>
<path style="fill:#c72325; stroke:none;" d="M213 183L214 184L213 183M275 183L276 184L275 183z"/>
<path style="fill:#d56c85; stroke:none;" d="M276 183L277 184L276 183M148.667 184.333L149.333 184.667L148.667 184.333z"/>
<path style="fill:#c72325; stroke:none;" d="M215 184L216 185L215 184z"/>
<path style="fill:#d56c85; stroke:none;" d="M274.667 184.333L275.333 184.667L274.667 184.333z"/>
<path style="fill:#c72325; stroke:none;" d="M146 185L145 187L146 185z"/>
<path style="fill:#d56c85; stroke:none;" d="M147 185L148 186L147 185M216 185L217 186L216 185z"/>
<path style="fill:#c72325; stroke:none;" d="M217 185L218 186L217 185z"/>
<path style="fill:#d56c85; stroke:none;" d="M272.667 185.333L273.333 185.667L272.667 185.333M146 186L147 187L146 186M218 186L221 188L221 187L218 186z"/>
<path style="fill:#c72325; stroke:none;" d="M219 186L220 187L219 186z"/>
<path style="fill:#d56c85; stroke:none;" d="M271 186L272 187L271 186M144.667 187.333L145.333 187.667L144.667 187.333M270 187L271 188L270 187M143 188L144 189L143 188M221 188L224 190L224 189L221 188z"/>
<path style="fill:#c72325; stroke:none;" d="M222 188L223 189L222 188z"/>
<path style="fill:#d56c85; stroke:none;" d="M269 188L270 189L269 188z"/>
<path style="fill:#c72325; stroke:none;" d="M354 188L354 189L358 189L358 202L359 202L359 188L354 188z"/>
<path style="fill:#d56c85; stroke:none;" d="M142 189L143 190L142 189z"/>
<path style="fill:#c72325; stroke:none;" d="M267 189L268 190L267 189z"/>
<path style="fill:#d56c85; stroke:none;" d="M268 189L269 190L268 189z"/>
<path style="fill:#700b0c; stroke:none;" d="M354 189C352.697 204.949 341.227 216.654 325 217L325 213C316.364 213 300.011 209.726 295.179 219.019C292.508 224.155 294 232.355 294 238L299 238C299.001 233.136 298.537 228.083 302.344 224.394C307.641 219.262 327.227 218.158 331 225C352.647 223.232 358 208.026 358 189L354 189z"/>
<path style="fill:#d56c85; stroke:none;" d="M141 190L142 191L141 190M224 190L232 198L224 190z"/>
<path style="fill:#c72325; stroke:none;" d="M225 190L226 191L225 190z"/>
<path style="fill:#d56c85; stroke:none;" d="M267 190L268 191L267 190M140 191L141 192L140 191z"/>
<path style="fill:#c72325; stroke:none;" d="M226 191L227 192L226 191z"/>
<path style="fill:#d56c85; stroke:none;" d="M266 191L267 192L266 191M139 192L140 193L139 192z"/>
<path style="fill:#c72325; stroke:none;" d="M227 192L228 193L227 192z"/>
<path style="fill:#d56c85; stroke:none;" d="M265 192L264 195L265 192M138 193L137 196L138 193z"/>
<path style="fill:#c72325; stroke:none;" d="M264 193L265 194L264 193M137 194L138 195L137 194M230 195L231 196L230 195M263 195L264 196L263 195z"/>
<path style="fill:#d56c85; stroke:none;" d="M136 196L135 199L136 196z"/>
<path style="fill:#c72325; stroke:none;" d="M231 196L232 197L231 196z"/>
<path style="fill:#d56c85; stroke:none;" d="M263 196L264 197L263 196z"/>
<path style="fill:#c72325; stroke:none;" d="M135 197L136 198L135 197M262 197L263 198L262 197z"/>
<path style="fill:#d56c85; stroke:none;" d="M232 198L233 199L232 198M262 198L261 203L262 203L262 198z"/>
<path style="fill:#c72325; stroke:none;" d="M134 199L135 200L134 199z"/>
<path style="fill:#d56c85; stroke:none;" d="M233 199L235 202L233 199z"/>
<path style="fill:#c72325; stroke:none;" d="M261 199L262 200L261 199z"/>
<path style="fill:#d56c85; stroke:none;" d="M134 200L135 201L134 200z"/>
<path style="fill:#c72325; stroke:none;" d="M234 200L235 201L234 200M133 201L134 202L133 201z"/>
<path style="fill:#d56c85; stroke:none;" d="M133.333 202.667L133.667 203.333L133.333 202.667M235.333 202.667L235.667 203.333L235.333 202.667z"/>
<path style="fill:#c72325; stroke:none;" d="M260 203L261 204L260 203z"/>
<path style="fill:#d56c85; stroke:none;" d="M132 204L132 207L133 207L132 204M236 204L237 205L236 204M260 204L260 208L261 208L260 204z"/>
<path style="fill:#c72325; stroke:none;" d="M357.333 204.667L357.667 205.333L357.333 204.667M237 205L238 206L237 205M131 207L132 208L131 207M238 207L239 208L238 207z"/>
<path style="fill:#d56c85; stroke:none;" d="M131 208L131 238L132 238L131 208z"/>
<path style="fill:#c72325; stroke:none;" d="M239 208L240 209L239 208M259.333 208.667L259.667 209.333L259.333 208.667M356 208L357 209L356 208z"/>
<path style="fill:#700b0c; stroke:none;" d="M239 209C243.341 227.765 243 245.769 243 265C231.179 266.601 225.516 278.132 215 283.11C200.019 290.2 184.095 289 168 289C167.992 301.44 163.949 313.835 154.826 322.711C147.52 329.819 136.04 329.658 136 341C159.366 339.981 172.82 318.756 173 297C190.651 297 209.295 298.229 225 288.532C248.323 274.13 257.158 230.918 239 209z"/>
<path style="fill:#c72325; stroke:none;" d="M240 210L241 211L240 210z"/>
<path style="fill:#d56c85; stroke:none;" d="M259 210L259 238L260 238L259 210z"/>
<path style="fill:#c72325; stroke:none;" d="M355 210L356 211L355 210M241 212L242 213L241 212M354 212L355 213L354 212M242 214L243 215L242 214z"/>
<path style="fill:#700b0c; stroke:none;" d="M168 215L168 238L171 238L171 256L173 256L173 223C184.505 223 194.232 222.583 205 227C198.439 212.124 181.498 215 168 215z"/>
<path style="fill:#c72325; stroke:none;" d="M352 215L353 216L352 215M243 216L244 217L243 216M351 216L352 217L351 216M350 217L351 218L350 217M244.333 218.667L244.667 219.333L244.333 218.667M349 218L350 219L349 218M346 220L347 221L346 220M245.333 221.667L245.667 222.333L245.333 221.667M306.667 221.333L307.333 221.667L306.667 221.333M344 221L345 222L344 221M304 222L305 223L304 222M330 222L330 225L331 225L330 222M342 222L343 223L342 222z"/>
<path style="fill:#f8f9ff; stroke:none;" d="M173 223L173 255L182 255L182 240L183 240L182 266L204 266L205 258L192 258L192 256L201 256L202 249L201 248L192 249L192 246L204 246L204 239L182 239L182 238C188.647 238 199.559 235.878 205 240C213.208 220.44 183.75 223 173 223z"/>
<path style="fill:#c72325; stroke:none;" d="M195.667 223.333L196.333 223.667L195.667 223.333M302 223L303 224L302 223M339.667 223.333L340.333 223.667L339.667 223.333M199 224L200 225L199 224M246 224L246 227L247 227L246 224M301 224L302 225L301 224M335.667 224.333L336.333 224.667L335.667 224.333M201 225L202 226L201 225M203 226L204 227L203 226M204 227L205 228L204 227M299.333 227.667L299.667 228.333L299.333 227.667z"/>
<path style="fill:#d56c85; stroke:none;" d="M205 228L206 229L205 228z"/>
<path style="fill:#c72325; stroke:none;" d="M205 229L206 230L205 229M247 229L247 233L248 233L247 229z"/>
<path style="fill:#d56c85; stroke:none;" d="M206 230L206 240L207 240L206 230M228 230L229 231L228 230z"/>
<path style="fill:#f8f9ff; stroke:none;" d="M243 250L233 250L233 258C225.202 257.407 220.967 245.65 228.148 240.782C231.979 238.185 237.076 240.951 241 242C241.527 239.444 243.453 235.003 241.882 232.589C240.186 229.982 234.709 229.981 232 230.104C221.782 230.57 213.854 236.409 213.09 247C212.708 252.299 213.36 258.671 217.394 262.581C222.11 267.153 237.422 269.595 241.972 263.436C244.266 260.331 243 253.679 243 250z"/>
<path style="fill:#d56c85; stroke:none;" d="M237 230L238 231L237 230M30 231L31 232L30 231M49.6667 231.333L50.3333 231.667L49.6667 231.333z"/>
<path style="fill:#c72325; stroke:none;" d="M51 231L52 232L51 231z"/>
<path style="fill:#d56c85; stroke:none;" d="M53 232L54 233L53 232z"/>
<path style="fill:#c72325; stroke:none;" d="M56 234L58 236L56 234z"/>
<path style="fill:#6a6b96; stroke:none;" d="M242 235L241 242C237.088 240.749 231.193 237.922 227.434 240.873C220.688 246.168 225.262 257.747 233 258L233 250L242 250L242 235z"/>
<path style="fill:#d56c85; stroke:none;" d="M57 236L58 237L57 236z"/>
<path style="fill:#c72325; stroke:none;" d="M58 237L60 239L58 237z"/>
<path style="fill:#d56c85; stroke:none;" d="M58.3333 238.667L58.6667 239.333L58.3333 238.667M61 238L61 249L62 249L62 239L80 239L61 238z"/>
<path style="fill:#c72325; stroke:none;" d="M98 238L99 239L98 238z"/>
<path style="fill:#d56c85; stroke:none;" d="M99.6667 238.333L100.333 238.667L99.6667 238.333M108.667 238.333L109.333 238.667L108.667 238.333M121 238L121 248L122 248L122 239L131 239L121 238M142 238L143 239L142 238z"/>
<path style="fill:#f8f9ff; stroke:none;" d="M144 238L144 266L155 266L155 238L144 238M160 238L160 266L179 266L179 257L170 258L171 239L160 238z"/>
<path style="fill:#d56c85; stroke:none;" d="M168 238L168 239L171 239L168 238M182 238L182 239L204 239L204 243C206.531 235.277 186.642 238 182 238z"/>
<path style="fill:#c72325; stroke:none;" d="M204 238L205 239L204 238z"/>
<path style="fill:#d56c85; stroke:none;" d="M247 238L247 265L248 265L248 239L259 239L247 238z"/>
<path style="fill:#f8f9ff; stroke:none;" d="M273 238L273 266L282 266L282 254L283 254C285.886 264.02 290.135 266 300 266L300 239L291 238L291 250L290 250L285 238L273 238z"/>
<path style="fill:#d56c85; stroke:none;" d="M294 238L294 239L300 239L300 245L301 245L301 238L294 238M306 238L306 239L328 239L306 238M332 238L332 239L350 239L332 238M367 238L367 239L380 239L367 238M389 238L389 239L412 239L389 238z"/>
<path style="fill:#c72325; stroke:none;" d="M422 238L423 239L422 238z"/>
<path style="fill:#d56c85; stroke:none;" d="M423.667 238.333L424.333 238.667L423.667 238.333M432.667 238.333L433.333 238.667L432.667 238.333M446 238L446 239L464 239L446 238z"/>
<path style="fill:#c72325; stroke:none;" d="M464 238L465 239L464 238z"/>
<path style="fill:#d56c85; stroke:none;" d="M30 239L30 263L31 263L30 239z"/>
<path style="fill:#700b0c; stroke:none;" d="M41 239L41 248L43 248L45 240L41 239z"/>
<path style="fill:#d56c85; stroke:none;" d="M45 239L46 240L45 239z"/>
<path style="fill:#700b0c; stroke:none;" d="M59 239C58.9044 250.391 52.1328 256.089 41 257L41 266L33 266L33 268L43 268L42 258C52.238 257.914 65.4137 251.153 59 239z"/>
<path style="fill:#d56c85; stroke:none;" d="M82 239L84 241L82 239M96 239L97 240L96 239M111 239L112 240L111 239z"/>
<path style="fill:#c72325; stroke:none;" d="M112 239L113 240L112 239z"/>
<path style="fill:#d56c85; stroke:none;" d="M229 239L230 240L229 239M232 239L233 240L232 239M328.333 239.667L328.667 240.333L328.333 239.667z"/>
<path style="fill:#c72325; stroke:none;" d="M331.333 239.667L331.667 240.333L331.333 239.667z"/>
<path style="fill:#d56c85; stroke:none;" d="M352 239L353 240L352 239M420 239L421 240L420 239M435 239L436 240L435 239z"/>
<path style="fill:#c72325; stroke:none;" d="M436 239L437 240L436 239z"/>
<path style="fill:#d56c85; stroke:none;" d="M466 239L467 240L466 239z"/>
<path style="fill:#c72325; stroke:none;" d="M43 240L43 241L47 241L43 240M60 240L60 243L61 243L60 240z"/>
<path style="fill:#d56c85; stroke:none;" d="M113 240L114 241L113 240M142 240L143 241L142 240M170 240L170 247L171 247L170 240M182 240L182 255L174 255L174 256L183 256L182 240z"/>
<path style="fill:#c72325; stroke:none;" d="M205 240L206 241L205 240z"/>
<path style="fill:#d56c85; stroke:none;" d="M236 240L237 241L236 240z"/>
<path style="fill:#c72325; stroke:none;" d="M301 240L302 268L303 268C303 261.53 305.975 244.347 301 240M328 243L329 243L329 241L330 241L330 246L332 246L330 240L328 243M354 240L356 242L354 240z"/>
<path style="fill:#d56c85; stroke:none;" d="M380.333 240.667L380.667 241.333L380.333 240.667z"/>
<path style="fill:#c72325; stroke:none;" d="M381 240L381 244L382 244L381 240M412 240L412 241L414 244L415 244L412 240z"/>
<path style="fill:#d56c85; stroke:none;" d="M437 240L438 241L437 240M468 240L470 242L468 240z"/>
<path style="fill:#c72325; stroke:none;" d="M93 241L94 242L93 241z"/>
<path style="fill:#d56c85; stroke:none;" d="M114 241L115 242L114 241z"/>
<path style="fill:#c72325; stroke:none;" d="M173 241L174 242L173 241z"/>
<path style="fill:#700b0c; stroke:none;" d="M205 241L206 242L205 241z"/>
<path style="fill:#d56c85; stroke:none;" d="M269 241L270 242L269 241z"/>
<path style="fill:#700b0c; stroke:none;" d="M301 241L301 266L294 266C294 274.754 290.268 294.027 299 299L299 268L302 268L301 241M329 241L328 246L329 241z"/>
<path style="fill:#d56c85; stroke:none;" d="M366.333 241.667L366.667 242.333L366.333 241.667z"/>
<path style="fill:#700b0c; stroke:none;" d="M381.333 241.667L381.667 242.333L381.333 241.667M412 241L412 247L406 247L406 266L399 266L399 268L408 268L407 248L414 248L414 241L412 241z"/>
<path style="fill:#c72325; stroke:none;" d="M417 241L418 242L417 241z"/>
<path style="fill:#d56c85; stroke:none;" d="M438 241L439 242L438 241M47 242L47 245L48 245L47 242M85 242L86 243L85 242M115 242L116 243L115 242M225 242L226 243L225 242M439 242L440 243L439 242z"/>
<path style="fill:#c72325; stroke:none;" d="M470 242L472 244L470 242M86 243L87 244L86 243M116 243L118 247L119 247L116 243M204 243L205 244L204 243z"/>
<path style="fill:#d56c85; stroke:none;" d="M213 243L214 244L213 243M356.333 243.667L356.667 244.333L356.333 243.667z"/>
<path style="fill:#700b0c; stroke:none;" d="M382 243L385 257L386 257L382 243z"/>
<path style="fill:#c72325; stroke:none;" d="M440 243L443 246L440 243z"/>
<path style="fill:#d56c85; stroke:none;" d="M470 243L471 244L470 243M86.3333 244.667L86.6667 245.333L86.3333 244.667z"/>
<path style="fill:#700b0c; stroke:none;" d="M87 244L83 256L84 257C88.2925 253.51 89.9665 248.985 87 244z"/>
<path style="fill:#d56c85; stroke:none;" d="M91 244L92 245L91 244M116 244L117 245L116 244z"/>
<path style="fill:#700b0c; stroke:none;" d="M357 244L359 248L357 244z"/>
<path style="fill:#d56c85; stroke:none;" d="M365.333 244.667L365.667 245.333L365.333 244.667M381.333 244.667L381.667 245.333L381.333 244.667z"/>
<path style="fill:#f8f9ff; stroke:none;" d="M414 244L415 245L414 244z"/>
<path style="fill:#d56c85; stroke:none;" d="M415 244L416 245L415 244M440 244L441 245L440 244z"/>
<path style="fill:#700b0c; stroke:none;" d="M471 244L472 245L471 244z"/>
<path style="fill:#d56c85; stroke:none;" d="M58.3333 245.667L58.6667 246.333L58.3333 245.667M71 251L72 251L72 246L76 247C72.313 244.485 71.2784 247.425 71 251z"/>
<path style="fill:#c72325; stroke:none;" d="M88.3333 245.667L88.6667 246.333L88.3333 245.667M300 245L300 251L301 251L300 245z"/>
<path style="fill:#d56c85; stroke:none;" d="M342 245L342 246L345 246L342 245z"/>
<path style="fill:#c72325; stroke:none;" d="M358.333 245.667L358.667 246.333L358.333 245.667M383.333 245.667L383.667 246.333L383.333 245.667z"/>
<path style="fill:#d56c85; stroke:none;" d="M411 245L407 246L407 247L411 245z"/>
<path style="fill:#c72325; stroke:none;" d="M414 245L415 246L414 245z"/>
<path style="fill:#d56c85; stroke:none;" d="M456 245L456 246L459 246L456 245z"/>
<path style="fill:#c72325; stroke:none;" d="M471 245L471 247L473 245L471 245M46 246L47 247L46 246M60 246L60 249L61 249L60 246z"/>
<path style="fill:#700b0c; stroke:none;" d="M72 246L72 251L73 251L75 246L72 246z"/>
<path style="fill:#d56c85; stroke:none;" d="M90.3333 246.667L90.6667 247.333L90.3333 246.667M101 246L100 249L101 249L101 246z"/>
<path style="fill:#700b0c; stroke:none;" d="M101 258L102 258L105 246C99.763 247.738 101 253.31 101 258z"/>
<path style="fill:#c72325; stroke:none;" d="M105 246L105 248L107 248L105 246z"/>
<path style="fill:#d56c85; stroke:none;" d="M117.333 246.667L117.667 247.333L117.333 246.667M140 246L141 247L140 246M192 246L193 247L192 246z"/>
<path style="fill:#c72325; stroke:none;" d="M192 247L192 248L199 247L192 247z"/>
<path style="fill:#d56c85; stroke:none;" d="M199 246L199 247L204 247L199 246M257 246L258 247L257 246z"/>
<path style="fill:#c72325; stroke:none;" d="M258 246L257 248L258 246z"/>
<path style="fill:#d56c85; stroke:none;" d="M267.667 246.333L268.333 246.667L267.667 246.333M288 246L289 247L288 246M326 246L327 247L326 246z"/>
<path style="fill:#6a6b96; stroke:none;" d="M342 246L342 251L346 246L342 246z"/>
<path style="fill:#d56c85; stroke:none;" d="M389 246L389 247L394 247L389 246z"/>
<path style="fill:#c72325; stroke:none;" d="M394 246L395 251L396 251L394 246z"/>
<path style="fill:#d56c85; stroke:none;" d="M395 246L396 247L395 246M405 246L405 252L406 252L405 246z"/>
<path style="fill:#c72325; stroke:none;" d="M406 246L407 247L406 246z"/>
<path style="fill:#d56c85; stroke:none;" d="M414.333 246.667L414.667 247.333L414.333 246.667M425 246L424 249L425 249L425 246z"/>
<path style="fill:#700b0c; stroke:none;" d="M425 258L426 258L429 246C423.763 247.738 425 253.31 425 258z"/>
<path style="fill:#c72325; stroke:none;" d="M429 246L429 248L431 248L429 246z"/>
<path style="fill:#d56c85; stroke:none;" d="M441.333 246.667L441.667 247.333L441.333 246.667z"/>
<path style="fill:#700b0c; stroke:none;" d="M442 246C442 258.124 438.617 266.71 425 267L425 268C437.028 267.999 450.183 259.66 442 246M456 246L456 251L458 251L460 247L456 246M472 246L467 256L468 257C471.644 254.111 473.873 250.604 472 246z"/>
<path style="fill:#c72325; stroke:none;" d="M74.6667 247.333L75.3333 247.667L74.6667 247.333z"/>
<path style="fill:#700b0c; stroke:none;" d="M118 247C117.999 258.842 113.947 266.724 101 267L101 268C112.413 267.992 125.966 260.298 118 247z"/>
<path style="fill:#d56c85; stroke:none;" d="M131.333 247.667L131.667 248.333L131.333 247.667M154 247L154 251L155 251L154 247z"/>
<path style="fill:#700b0c; stroke:none;" d="M193 247L193 248L203 248L193 247M258.667 247.333L259.333 247.667L258.667 247.333z"/>
<path style="fill:#c72325; stroke:none;" d="M364 247L365 248L364 247z"/>
<path style="fill:#d56c85; stroke:none;" d="M373 247L374 248L373 247M382.333 247.667L382.667 248.333L382.333 247.667z"/>
<path style="fill:#c72325; stroke:none;" d="M391 247L394 249L394 248L391 247z"/>
<path style="fill:#700b0c; stroke:none;" d="M392 247L392 248L395 248L392 247z"/>
<path style="fill:#c72325; stroke:none;" d="M443.333 247.667L443.667 248.333L443.333 247.667z"/>
<path style="fill:#d56c85; stroke:none;" d="M460 247L460 250L461 250L460 247M471 247L472 248L471 247z"/>
<path style="fill:#c72325; stroke:none;" d="M473 247L473 251L474 251L473 247z"/>
<path style="fill:#d56c85; stroke:none;" d="M41 248L41 249L45 249L41 248M57 248L58 249L57 248M86.3333 248.667L86.6667 249.333L86.3333 248.667z"/>
<path style="fill:#c72325; stroke:none;" d="M103 248L104 249L103 248M119.333 248.667L119.667 249.333L119.333 248.667M121.333 248.667L121.667 249.333L121.333 248.667z"/>
<path style="fill:#d56c85; stroke:none;" d="M192 248L192 249L199 249L192 248M201.667 248.333L202.333 248.667L201.667 248.333M257 248L257 249L260 249L257 248M325 248L326 249L325 248z"/>
<path style="fill:#6a6b96; stroke:none;" d="M357 248C354.235 254.471 352.544 259.21 360 263C361.297 256.731 363.997 251.402 357 248z"/>
<path style="fill:#c72325; stroke:none;" d="M359 248L360 249L359 248z"/>
<path style="fill:#d56c85; stroke:none;" d="M364 248L365 249L364 248z"/>
<path style="fill:#c72325; stroke:none;" d="M373 248L374 249L373 248M384.333 248.667L384.667 249.333L384.333 248.667M407 248L407 267L408 267L407 248M412.667 248.333L413.333 248.667L412.667 248.333M427 248L428 249L427 248M471 248L472 249L471 248M57 249L58 250L57 249M61.3333 249.667L61.6667 250.333L61.3333 249.667M89 249L88 253L89 253L89 249M100 249L100 254L101 254L100 249M102 249L102 259L103 259L102 249z"/>
<path style="fill:#d56c85; stroke:none;" d="M107 249L107 257L108 257L107 249M132 249L133 250L132 249M360 249L361 250L360 249M372.333 249.667L372.667 250.333L372.333 249.667z"/>
<path style="fill:#700b0c; stroke:none;" d="M373 249L373 255L374 255L373 249z"/>
<path style="fill:#c72325; stroke:none;" d="M424 249L424 254L425 254L424 249z"/>
<path style="fill:#d56c85; stroke:none;" d="M431 249L431 257L432 257L431 249M56 250L57 251L56 250z"/>
<path style="fill:#c72325; stroke:none;" d="M59 250L60 251L59 250M73 250L74 251L73 250z"/>
<path style="fill:#d56c85; stroke:none;" d="M75 250L76 251L75 250z"/>
<path style="fill:#c72325; stroke:none;" d="M86 250L87 251L86 250z"/>
<path style="fill:#d56c85; stroke:none;" d="M140 250L141 251L140 250M291 250L292 251L291 250M306 250L306 261L307 261L306 250M325 250L326 251L325 250M361 250L362 251L361 250M374.333 250.667L374.667 251.333L374.333 250.667z"/>
<path style="fill:#c72325; stroke:none;" d="M383 250L384 251L383 250M413 250L414 251L413 250M426 250L426 259L427 259L426 250z"/>
<path style="fill:#d56c85; stroke:none;" d="M446 250L446 261L447 261L446 250z"/>
<path style="fill:#c72325; stroke:none;" d="M459 250L460 251L459 250z"/>
<path style="fill:#d56c85; stroke:none;" d="M470 250L471 251L470 250M55 251L56 252L55 251M85 251L86 252L85 251M89 251L89 255L90 255L89 251M201.333 251.667L201.667 252.333L201.333 251.667M266.333 251.667L266.667 252.333L266.333 251.667M362.667 251.333L363.333 251.667L362.667 251.333z"/>
<path style="fill:#c72325; stroke:none;" d="M372 251L373 252L372 251z"/>
<path style="fill:#d56c85; stroke:none;" d="M383.333 251.667L383.667 252.333L383.333 251.667M413 251L413 255L414 255L413 251z"/>
<path style="fill:#c72325; stroke:none;" d="M444 251L444 256L445 256L444 251M470 251L471 252L470 251z"/>
<path style="fill:#d56c85; stroke:none;" d="M54 252L55 253L54 252z"/>
<path style="fill:#c72325; stroke:none;" d="M58 252L59 253L58 252M85 252L86 253L85 252M374 252L374 255L375 255L374 252M385.333 252.667L385.667 253.333L385.333 252.667M405 252L405 260L406 260L405 252z"/>
<path style="fill:#d56c85; stroke:none;" d="M469 252L470 253L469 252z"/>
<path style="fill:#c72325; stroke:none;" d="M472.333 252.667L472.667 253.333L472.333 252.667M53 253L54 254L53 253M57 253L58 254L57 253M84 253L85 254L84 253z"/>
<path style="fill:#d56c85; stroke:none;" d="M354 253L355 254L354 253M371.333 253.667L371.667 254.333L371.333 253.667M468 253L469 254L468 253M51 254L52 255L51 254z"/>
<path style="fill:#c72325; stroke:none;" d="M56 254L57 255L56 254M83 254L84 255L83 254M87 254L88 255L87 254z"/>
<path style="fill:#d56c85; stroke:none;" d="M100 254L100 257L101 257L100 254M144 254L145 255L144 254M353 254L354 255L353 254z"/>
<path style="fill:#c72325; stroke:none;" d="M372 254L373 255L372 254M384 254L385 255L384 254z"/>
<path style="fill:#d56c85; stroke:none;" d="M424 254L424 257L425 257L424 254M467 254L468 255L467 254z"/>
<path style="fill:#c72325; stroke:none;" d="M471 254L472 255L471 254z"/>
<path style="fill:#d56c85; stroke:none;" d="M48.6667 255.333L49.3333 255.667L48.6667 255.333z"/>
<path style="fill:#c72325; stroke:none;" d="M54.6667 255.333L55.3333 255.667L54.6667 255.333z"/>
<path style="fill:#d56c85; stroke:none;" d="M82 255L83 256L82 255z"/>
<path style="fill:#c72325; stroke:none;" d="M86 255L87 256L86 255M173 255L174 256L173 255z"/>
<path style="fill:#d56c85; stroke:none;" d="M384 255L385 256L384 255z"/>
<path style="fill:#c72325; stroke:none;" d="M386 255L385 258L386 255M470 255L471 256L470 255M41 256L41 257L46 257L41 256M52.6667 256.333L53.3333 256.667L52.6667 256.333M83 256L84 257L83 256M85 256L86 257L85 256z"/>
<path style="fill:#d56c85; stroke:none;" d="M117 256L118 257L117 256z"/>
<path style="fill:#c72325; stroke:none;" d="M257.667 256.333L258.333 256.667L257.667 256.333M316 256L317 257L316 256z"/>
<path style="fill:#d56c85; stroke:none;" d="M361 256L362 257L361 256M441 256L442 257L441 256M467 256L468 257L467 256z"/>
<path style="fill:#c72325; stroke:none;" d="M469 256L470 257L469 256M49.6667 257.333L50.3333 257.667L49.6667 257.333M84 257L85 260L86 260L84 257M117 257L118 258L117 257M119 257L119 260L120 260L119 257z"/>
<path style="fill:#d56c85; stroke:none;" d="M131 257L132 258L131 257M136 257L136 258L139 258L136 257z"/>
<path style="fill:#c72325; stroke:none;" d="M246.333 257.667L246.667 258.333L246.333 257.667z"/>
<path style="fill:#700b0c; stroke:none;" d="M257 257L257 258L260 258L257 257M316 257L317 258L316 257z"/>
<path style="fill:#c72325; stroke:none;" d="M441 257L442 258L441 257z"/>
<path style="fill:#d56c85; stroke:none;" d="M468 257L469 258L468 257z"/>
<path style="fill:#c72325; stroke:none;" d="M42.3333 258.667L42.6667 259.333L42.3333 258.667z"/>
<path style="fill:#d56c85; stroke:none;" d="M71 258L71 266L72 266L72 259L74 261L71 258M84 258L85 259L84 258M90 258L91 259L90 258M101 258L102 259L101 258M106 258L107 259L106 258M179 258L180 259L179 258M257.667 258.333L258.333 258.667L257.667 258.333M316 258L317 259L316 258M342.667 258.333L343.333 258.667L342.667 258.333M385.333 258.667L385.667 259.333L385.333 258.667z"/>
<path style="fill:#700b0c; stroke:none;" d="M386 258L387 264L388 264L386 258z"/>
<path style="fill:#d56c85; stroke:none;" d="M414 258L415 259L414 258M425 258L426 259L425 258M430 258L431 259L430 258z"/>
<path style="fill:#c72325; stroke:none;" d="M443.333 258.667L443.667 259.333L443.333 258.667z"/>
<path style="fill:#d56c85; stroke:none;" d="M456.667 258.333L457.333 258.667L456.667 258.333z"/>
<path style="fill:#c72325; stroke:none;" d="M469 258L470 259L469 258z"/>
<path style="fill:#700b0c; stroke:none;" d="M72 259L72 266L65 266L65 268L74 268L74 259L72 259z"/>
<path style="fill:#d56c85; stroke:none;" d="M116 259L117 260L116 259M144 259L145 260L144 259M344 259L345 260L344 259M355 259L356 260L355 259z"/>
<path style="fill:#c72325; stroke:none;" d="M387.333 259.667L387.667 260.333L387.333 259.667z"/>
<path style="fill:#d56c85; stroke:none;" d="M440 259L441 260L440 259z"/>
<path style="fill:#700b0c; stroke:none;" d="M456 259L457 266L449 266L449 268L458 268L458 259L456 259z"/>
<path style="fill:#c72325; stroke:none;" d="M458.333 259.667L458.667 260.333L458.333 259.667M470 259L471 260L470 259M73 260L73 265L74 265L73 260M86 260L87 261L86 260z"/>
<path style="fill:#d56c85; stroke:none;" d="M91 260L92 261L91 260M131 260L131 263L132 263L131 260z"/>
<path style="fill:#c72325; stroke:none;" d="M395 260L396 261L395 260z"/>
<path style="fill:#d56c85; stroke:none;" d="M405 260L405 266L406 266L405 260M415 260L416 261L415 260M470 260L471 261L470 260z"/>
<path style="fill:#c72325; stroke:none;" d="M61 261L62 262L61 261M87 261L90 267L91 267L87 261M115 261L116 262L115 261M118 261L119 262L118 261M121 261L122 262L121 261z"/>
<path style="fill:#d56c85; stroke:none;" d="M154 261L154 264L155 264L154 261z"/>
<path style="fill:#c72325; stroke:none;" d="M245 261L245 265L246 265L245 261M300 261L300 265L301 265L300 261M386 261L387 262L386 261z"/>
<path style="fill:#d56c85; stroke:none;" d="M395 261L395 266L396 266L395 261z"/>
<path style="fill:#c72325; stroke:none;" d="M439 261L440 262L439 261M442 261L443 262L442 261z"/>
<path style="fill:#d56c85; stroke:none;" d="M459 261L460 262L459 261z"/>
<path style="fill:#c72325; stroke:none;" d="M471 261L472 262L471 261z"/>
<path style="fill:#d56c85; stroke:none;" d="M61 262L61 266L62 266L61 262M75 262L76 263L75 262M87 262L88 263L87 262M92 262L94 264L92 262M114 262L115 263L114 262M121 262L121 266L122 266L121 262M369 262L370 263L369 262z"/>
<path style="fill:#c72325; stroke:none;" d="M370 262L370 263L377 264L370 262z"/>
<path style="fill:#d56c85; stroke:none;" d="M376 262L377 263L376 262M386 262L387 263L386 262z"/>
<path style="fill:#c72325; stroke:none;" d="M388 262L387 265L388 262z"/>
<path style="fill:#d56c85; stroke:none;" d="M416 262L418 264L416 262M438 262L439 263L438 262z"/>
<path style="fill:#c72325; stroke:none;" d="M472 262L473 263L472 262z"/>
<path style="fill:#d56c85; stroke:none;" d="M113 263L114 264L113 263M331 263L332 264L331 263M358 263L358 265L360 263L358 263z"/>
<path style="fill:#6a6b96; stroke:none;" d="M369 263L370 264L369 263z"/>
<path style="fill:#700b0c; stroke:none;" d="M268 322C280.031 345.565 308.984 341 331 341C343.856 341 356.498 341.62 365.787 330.985C379.199 315.63 373.486 282.83 372 264L376 264C372.958 262.769 369.383 263.159 368.719 267.059C365.603 285.355 374.529 307.31 360.532 322.829C350.607 333.835 338.541 333 325 333C303.164 333 286.785 334.372 268 322z"/>
<path style="fill:#d56c85; stroke:none;" d="M437 263L438 264L437 263z"/>
<path style="fill:#c72325; stroke:none;" d="M441 263L442 264L441 263z"/>
<path style="fill:#d56c85; stroke:none;" d="M460 263L461 264L460 263z"/>
<path style="fill:#c72325; stroke:none;" d="M473 263L474 264L473 263z"/>
<path style="fill:#d56c85; stroke:none;" d="M76 264L77 265L76 264M88 264L89 265L88 264z"/>
<path style="fill:#c72325; stroke:none;" d="M94 264L95 265L94 264z"/>
<path style="fill:#d56c85; stroke:none;" d="M111 264L112 265L111 264z"/>
<path style="fill:#c72325; stroke:none;" d="M112 264L113 265L112 264M116 264L117 265L116 264z"/>
<path style="fill:#6a6b96; stroke:none;" d="M242 264L243 265L242 264z"/>
<path style="fill:#c72325; stroke:none;" d="M418 264L419 265L418 264z"/>
<path style="fill:#d56c85; stroke:none;" d="M435 264L436 265L435 264z"/>
<path style="fill:#c72325; stroke:none;" d="M436 264L437 265L436 264M440 264L441 265L440 264z"/>
<path style="fill:#700b0c; stroke:none;" d="M473 264L465 267L465 268C467.788 267.913 474.524 268.066 473 264z"/>
<path style="fill:#d56c85; stroke:none;" d="M85.6667 265.333L86.3333 265.667L85.6667 265.333z"/>
<path style="fill:#700b0c; stroke:none;" d="M80 267L80 268L90 265L80 267z"/>
<path style="fill:#d56c85; stroke:none;" d="M96 265L97 266L96 265M109 265L110 266L109 265z"/>
<path style="fill:#c72325; stroke:none;" d="M110 265L111 266L110 265M115 265L116 266L115 265z"/>
<path style="fill:#d56c85; stroke:none;" d="M238 265L239 266L238 265z"/>
<path style="fill:#6a6b96; stroke:none;" d="M239 265L240 266L239 265z"/>
<path style="fill:#d56c85; stroke:none;" d="M288 265L289 266L288 265M300 265L301 266L300 265M327 265L328 266L327 265M387 265L388 266L387 265z"/>
<path style="fill:#700b0c; stroke:none;" d="M388 265L380 266L380 268C382.616 268 389.541 269.089 388 265z"/>
<path style="fill:#d56c85; stroke:none;" d="M420 265L421 266L420 265M433 265L434 266L433 265z"/>
<path style="fill:#c72325; stroke:none;" d="M434 265L435 266L434 265M439 265L440 266L439 265M456 265L457 266L456 265z"/>
<path style="fill:#d56c85; stroke:none;" d="M461 265L462 266L461 265M469.667 265.333L470.333 265.667L469.667 265.333z"/>
<path style="fill:#c72325; stroke:none;" d="M471 265L472 266L471 265M474.333 265.667L474.667 266.333L474.333 265.667M32.3333 266.667L32.6667 267.333L32.3333 266.667M64.3333 266.667L64.6667 267.333L64.3333 266.667z"/>
<path style="fill:#d56c85; stroke:none;" d="M78 266L78 267L82 267L78 266z"/>
<path style="fill:#c72325; stroke:none;" d="M82 266L83 267L82 266M97 266L97 267L101 268L101 267L97 266z"/>
<path style="fill:#d56c85; stroke:none;" d="M99 266L99 267L107 267L99 266z"/>
<path style="fill:#c72325; stroke:none;" d="M107 266L108 267L107 266M113 266L114 267L113 266z"/>
<path style="fill:#700b0c; stroke:none;" d="M124 266L124 268L131 268L131 266L124 266z"/>
<path style="fill:#d56c85; stroke:none;" d="M226 266L227 267L226 266z"/>
<path style="fill:#c72325; stroke:none;" d="M244 266L245 267L244 266z"/>
<path style="fill:#700b0c; stroke:none;" d="M250 266L250 268L260 268L260 266L250 266z"/>
<path style="fill:#c72325; stroke:none;" d="M308.333 266.667L308.667 267.333L308.333 266.667z"/>
<path style="fill:#700b0c; stroke:none;" d="M309 266L309 268L324 268L309 266z"/>
<path style="fill:#d56c85; stroke:none;" d="M350 266L351 267L350 266z"/>
<path style="fill:#c72325; stroke:none;" d="M379 266L380 267L379 266M389.333 266.667L389.667 267.333L389.333 266.667M398.333 266.667L398.667 267.333L398.333 266.667M421 266L421 267L425 268L425 267L421 266z"/>
<path style="fill:#d56c85; stroke:none;" d="M423 266L423 267L431 267L423 266z"/>
<path style="fill:#c72325; stroke:none;" d="M431 266L432 267L431 266M437.667 266.333L438.333 266.667L437.667 266.333M448.333 266.667L448.667 267.333L448.333 266.667z"/>
<path style="fill:#d56c85; stroke:none;" d="M462 266L462 267L466 267L462 266z"/>
<path style="fill:#c72325; stroke:none;" d="M466 266L467 267L466 266M86 267L86 268L89 268L86 267M110.667 267.333L111.333 267.667L110.667 267.333M372.333 267.667L372.667 268.333L372.333 267.667M435.667 267.333L436.333 267.667L435.667 267.333M464 267L465 268L464 267M470 267L470 268L473 268L470 267M81.6667 268.333L82.3333 268.667L81.6667 268.333M102 268L102 269L109 269L102 268z"/>
<path style="fill:#d56c85; stroke:none;" d="M131 268L131 333L136 333L136 332L132 332L132 288L131 268z"/>
<path style="fill:#c72325; stroke:none;" d="M242.333 268.667L242.667 269.333L242.333 268.667z"/>
<path style="fill:#d56c85; stroke:none;" d="M259 268L259 302L260 302L259 268z"/>
<path style="fill:#c72325; stroke:none;" d="M323 268L324 269L323 268M427 268L427 269L433 269L427 268M465.667 268.333L466.333 268.667L465.667 268.333z"/>
<path style="fill:#700b0c; stroke:none;" d="M324 269C326.862 274.513 331.022 278.224 337 280L337 274L324 269z"/>
<path style="fill:#c72325; stroke:none;" d="M241.333 270.667L241.667 271.333L241.333 270.667M324 270L325 271L324 270M240 272L241 273L240 272M325 272L326 273L325 272M373 272L373 313L374 313C374 301.304 377.511 282.75 373 272M326 273L327 274L326 273M239 274L240 275L239 274M327 274L328 275L327 274M238 275L239 276L238 275M328 275L329 276L328 275M329 276L330 277L329 276M237 277L238 278L237 277M330 277L331 278L330 277M236 278L237 279L236 278M332 278L333 279L332 278M235 279L236 280L235 279M333.667 279.333L334.333 279.667L333.667 279.333M234 280L235 281L234 280M336 280L337 281L336 280M233 281L234 282L233 281z"/>
<path style="fill:#d56c85; stroke:none;" d="M337 281L337 300L299 300L299 301L338 301L337 281z"/>
<path style="fill:#c72325; stroke:none;" d="M232 282L233 283L232 282M231 283L232 284L231 283M230 284L231 285L230 284M229 285L230 286L229 285M228 286L229 287L228 286M226 287L227 288L226 287M225 288L226 289L225 288M223 289L224 290L223 289M221 290L222 291L221 290M219 291L220 292L219 291M216.667 292.333L217.333 292.667L216.667 292.333M214 293L215 294L214 293M210.667 294.333L211.333 294.667L210.667 294.333M206.667 295.333L207.333 295.667L206.667 295.333M200 296L200 297L203 297L200 296M173 297L173 298L191 298L173 297M299 299L300 300L299 299M259.333 302.667L259.667 303.333L259.333 302.667M172 304L172 307L173 307L172 304z"/>
<path style="fill:#d56c85; stroke:none;" d="M260 305L260 308L261 308L260 305z"/>
<path style="fill:#c72325; stroke:none;" d="M260 308L261 309L260 308z"/>
<path style="fill:#d56c85; stroke:none;" d="M261.333 309.667L261.667 310.333L261.333 309.667z"/>
<path style="fill:#c72325; stroke:none;" d="M171.333 310.667L171.667 311.333L171.333 310.667M261 311L262 312L261 311z"/>
<path style="fill:#d56c85; stroke:none;" d="M262.333 312.667L262.667 313.333L262.333 312.667z"/>
<path style="fill:#c72325; stroke:none;" d="M170.333 313.667L170.667 314.333L170.333 313.667z"/>
<path style="fill:#d56c85; stroke:none;" d="M263 314L264 315L263 314z"/>
<path style="fill:#c72325; stroke:none;" d="M263 315L264 316L263 315M169 316L170 317L169 316z"/>
<path style="fill:#d56c85; stroke:none;" d="M264 316L266 318L264 316z"/>
<path style="fill:#c72325; stroke:none;" d="M264 317L265 318L264 317M372.333 317.667L372.667 318.333L372.333 317.667M168.333 318.667L168.667 319.333L168.333 318.667M265 318L266 319L265 318z"/>
<path style="fill:#d56c85; stroke:none;" d="M266 319L267 320L266 319z"/>
<path style="fill:#c72325; stroke:none;" d="M167 320L168 321L167 320M267 321L268 322L267 321M371 321L372 322L371 321M166 322L167 323L166 322M268 323L269 324L268 323M370.333 323.667L370.667 324.333L370.333 323.667M165 324L166 325L165 324M164 325L165 326L164 325M369 325L370 326L369 325M270 326L271 327L270 326M271 327L272 328L271 327M368 327L369 328L368 327M162 328L163 329L162 328M272 328L273 329L272 328M161 329L162 330L161 329M160 330L161 331L160 330M366 330L367 331L366 330M159 331L160 332L159 331M365 331L366 332L365 331M158 332L159 333L158 332M276 332L277 333L276 332M364 332L365 333L364 332M157 333L158 334L157 333M277 333L278 334L277 333M363 333L364 334L363 333M155 334L156 335L155 334M278 334L279 335L278 334M362 334L363 335L362 334M154 335L155 336L154 335M280 335L281 336L280 335M152 336L153 337L152 336M282 336L283 337L282 336M359 336L360 337L359 336M150 337L151 338L150 337M284 337L285 338L284 337M357 337L358 338L357 337M148 338L149 339L148 338M286 338L287 339L286 338M355 338L356 339L355 338M145.667 339.333L146.333 339.667L145.667 339.333M289 339L290 340L289 339M353 339L354 340L353 339M141.667 340.333L142.333 340.667L141.667 340.333M292 340L292 341L295 341L292 340M349.667 340.333L350.333 340.667L349.667 340.333z"/>
</svg>
